<svg xmlns="http://www.w3.org/2000/svg" viewBox="0 0 400 400" width="400" height="400" role="img" aria-label="TEXTILE digital asset cover">
  <rect width="400" height="400" fill="#100E14"/>
  <rect x="18" y="18" width="364" height="364" fill="none" stroke="#B8935A" stroke-width="1" opacity="0.35"/>
  <rect x="26" y="26" width="348" height="348" fill="none" stroke="#B8935A" stroke-width="0.5" opacity="0.2"/>
  <line x1="64" y1="72" x2="64" y2="296" stroke="#B8935A" stroke-width="3" opacity="0.8"/>
    <line x1="86" y1="72" x2="86" y2="296" stroke="#B8935A" stroke-width="1.2" opacity="0.8"/>
    <line x1="108" y1="72" x2="108" y2="296" stroke="#B8935A" stroke-width="1.2" opacity="0.8"/>
    <line x1="130" y1="72" x2="130" y2="296" stroke="#B8935A" stroke-width="3" opacity="0.8"/>
    <line x1="152" y1="72" x2="152" y2="296" stroke="#B8935A" stroke-width="1.2" opacity="0.8"/>
    <line x1="174" y1="72" x2="174" y2="296" stroke="#B8935A" stroke-width="1.2" opacity="0.8"/>
    <line x1="196" y1="72" x2="196" y2="296" stroke="#B8935A" stroke-width="3" opacity="0.8"/>
    <line x1="218" y1="72" x2="218" y2="296" stroke="#B8935A" stroke-width="1.2" opacity="0.8"/>
    <line x1="240" y1="72" x2="240" y2="296" stroke="#B8935A" stroke-width="1.2" opacity="0.8"/>
    <line x1="262" y1="72" x2="262" y2="296" stroke="#B8935A" stroke-width="3" opacity="0.8"/>
    <line x1="284" y1="72" x2="284" y2="296" stroke="#B8935A" stroke-width="1.2" opacity="0.8"/>
    <line x1="306" y1="72" x2="306" y2="296" stroke="#B8935A" stroke-width="1.2" opacity="0.8"/>
    <line x1="328" y1="72" x2="328" y2="296" stroke="#B8935A" stroke-width="3" opacity="0.8"/>
    <line x1="64" y1="76" x2="328" y2="76" stroke="#7FA8C9" stroke-width="3" opacity="0.55"/>
    <line x1="64" y1="98" x2="328" y2="98" stroke="#7FA8C9" stroke-width="1.2" opacity="0.55"/>
    <line x1="64" y1="120" x2="328" y2="120" stroke="#7FA8C9" stroke-width="1.2" opacity="0.55"/>
    <line x1="64" y1="142" x2="328" y2="142" stroke="#7FA8C9" stroke-width="1.2" opacity="0.55"/>
    <line x1="64" y1="164" x2="328" y2="164" stroke="#7FA8C9" stroke-width="3" opacity="0.55"/>
    <line x1="64" y1="186" x2="328" y2="186" stroke="#7FA8C9" stroke-width="1.2" opacity="0.55"/>
    <line x1="64" y1="208" x2="328" y2="208" stroke="#7FA8C9" stroke-width="1.2" opacity="0.55"/>
    <line x1="64" y1="230" x2="328" y2="230" stroke="#7FA8C9" stroke-width="1.2" opacity="0.55"/>
    <line x1="64" y1="252" x2="328" y2="252" stroke="#7FA8C9" stroke-width="3" opacity="0.55"/>
    <line x1="64" y1="274" x2="328" y2="274" stroke="#7FA8C9" stroke-width="1.2" opacity="0.55"/>
    <line x1="64" y1="296" x2="328" y2="296" stroke="#7FA8C9" stroke-width="1.2" opacity="0.55"/>
  <text x="200" y="358" text-anchor="middle" font-family="ui-monospace, 'IBM Plex Mono', monospace" font-size="11" letter-spacing="4" fill="#B8935A" opacity="0.8">TEXTILE</text>
</svg>
